
<svg xmlns="http://www.w3.org/2000/svg" viewBox="0 0 520 360" width="520" height="360">
  <defs>
    <style>
      .skin{fill:#ffceb6}
      .hair{fill:#1f2937}
      .shirt{fill:#14b8a6}
      .device{fill:#111827}
      .accent{fill:#ec4899}
      .muted{fill:#94a3b8}
    </style>
  </defs>
  <rect width="520" height="360" fill="none"/>
  <rect x="96" y="160" rx="24" ry="24" width="240" height="130" class="shirt"/>
  <circle cx="250" cy="120" r="46" class="skin"/>
  <path d="M208 118c0-32 28-50 56-50 24 0 46 16 52 40-16 8-34 12-54 12s-40-4-54-2z" class="hair"/>
  <rect x="300" y="190" width="120" height="26" rx="13" class="skin"/>
  <circle cx="420" cy="203" r="16" class="skin"/>
  <rect x="390" y="90" width="100" height="140" rx="10" fill="#fff" stroke="#111827" stroke-width="6"/>
  <rect x="420" y="70" width="40" height="20" rx="8" class="device"/>
  <circle cx="420" cy="120" r="14" class="accent"/>
  <rect x="410" y="152" width="60" height="10" class="muted"/>
  <rect x="410" y="172" width="70" height="10" class="muted"/>
  <rect x="410" y="192" width="50" height="10" class="muted"/>
</svg>
