
<svg xmlns="http://www.w3.org/2000/svg" width="1280" height="360" viewBox="0 0 1280 360" role="img" aria-label="Gift Huddle logo">
  <title>Gift Huddle - Pink</title>
  <defs>
    <style>
      .ink { fill: none; stroke: #EC4899; stroke-width: 24; stroke-linecap: round; stroke-linejoin: round; }
      .text { font: 700 140px/1.1 'Inter', 'SF Pro Text', system-ui, -apple-system, Segoe UI, Roboto, Arial, sans-serif; fill: #EC4899; }
    </style>
  </defs>
  <!-- Gift icon -->
  <g transform="translate(60,40)">
    <rect x="0" y="80" width="160" height="160" rx="20" class="ink"/>
    <path d="M80 20c-20 0-36 16-36 36s16 36 36 36 36-16 36-36-16-36-36-36z" class="ink" />
    <path d="M80 20c20 0 36 16 36 36s-16 36-36 36-36-16-36-36 16-36 36-36z" class="ink" transform="translate(80,0)"/>
    <path d="M0 120h160" class="ink"/>
    <path d="M80 80v160" class="ink"/>
  </g>
  <!-- Wordmark -->
  <text x="280" y="170" class="text">Gift</text>
  <text x="280" y="300" class="text">Huddle</text>
</svg>
