<svg xmlns="http://www.w3.org/2000/svg" width="18" height="18" viewBox="0 0 24 24">
  <path fill="#1877F2" d="M24 12.073C24 5.405 18.627 0 12 0S0 5.405 0 12.073C0 18.104 4.388 23.092 10.125 24v-8.437H7.078v-3.49h3.047V9.356c0-3.007 1.792-4.668 4.532-4.668 1.312 0 2.686.235 2.686.235v2.953h-1.513c-1.492 0-1.956.93-1.956 1.887v2.285h3.328l-.532 3.49h-2.796V24C19.612 23.092 24 18.104 24 12.073z"/>
  <path fill="#FFF" d="M16.671 15.563l.532-3.49h-3.328V9.788c0-.958.464-1.887 1.956-1.887h1.513V4.948s-1.374-.235-2.686-.235c-2.74 0-4.532 1.661-4.532 4.668v2.286H7.078v3.49h3.047V24a12.08 12.08 0 003.75 0v-8.437h2.796z"/>
</svg>
