<svg xmlns="http://www.w3.org/2000/svg" width="18" height="18" viewBox="0 0 48 48"><path fill="#FFC107" d="M43.611,20.083H42V20H24v8h11.303C33.889,32.658,29.389,36,24,36c-6.627,0-12-5.373-12-12 s5.373-12,12-12c3.059,0,5.842,1.153,7.961,3.039l5.657-5.657C34.862,6.053,29.7,4,24,4C12.955,4,4,12.955,4,24 s8.955,20,20,20s20-8.955,20-20C44,22.659,43.859,21.35,43.611,20.083z"/><path fill="#FF3D00" d="M6.306,14.691l6.571,4.817C14.494,16.104,18.884,13,24,13c3.059,0,5.842,1.153,7.961,3.039l5.657-5.657 C34.862,6.053,29.7,4,24,4C16.318,4,9.656,8.337,6.306,14.691z"/><path fill="#4CAF50" d="M24,44c5.304,0,10.152-2.034,13.77-5.343l-6.351-5.374C29.389,36,29.389,36,24,36 c-5.366,0-9.852-3.318-11.686-7.974l-6.58,5.07C8.053,39.556,15.431,44,24,44z"/><path fill="#1976D2" d="M43.611,20.083H42V20H24v8h11.303c-1.321,3.09-4.042,5.544-7.534,6.284l6.351,5.374 C36.741,38.834,44,34,44,24C44,22.659,43.859,21.35,43.611,20.083z"/></svg>